HIERARCHY
ROOT root
{
	OFFSET	0	13.1	24.9
	CHANNELS 6  Xposition Yposition Zposition Xrotation Yrotation Zrotation
	JOINT spine_1
	{
		OFFSET	0	9.99999	0
		CHANNELS 3  Xrotation Yrotation Zrotation
		JOINT spine_2
		{
			OFFSET	0	112	-10
			CHANNELS 3  Xrotation Yrotation Zrotation
			JOINT spine_3
			{
				OFFSET	0	206.5	19.3
				CHANNELS 3  Xrotation Yrotation Zrotation
				JOINT spine_4
				{
					OFFSET	0	110.4	14.6
					CHANNELS 3  Xrotation Yrotation Zrotation
					JOINT neck_1
					{
						OFFSET	0	71.8	-50.3
						CHANNELS 3  Xrotation Yrotation Zrotation
						JOINT neck_2
						{
							OFFSET	0	86.2	-25.8
							CHANNELS 3  Xrotation Yrotation Zrotation
							JOINT head_ee
							{
								OFFSET	0	179.8	-8.7
								CHANNELS 3  Xrotation Yrotation Zrotation
								End Site
								{
									OFFSET	1	0	0
								}
							}
						}
					}
					JOINT left_clavicle
					{
						OFFSET	-43.2	22.4	-70.8
						CHANNELS 3  Xrotation Yrotation Zrotation
						JOINT left_shoulder
						{
							OFFSET	-93.9	-5.79999	48.7
							CHANNELS 3  Xrotation Yrotation Zrotation
							JOINT left_elbow
							{
								OFFSET	-291.4	-30.8	15.2
								CHANNELS 3  Xrotation Yrotation Zrotation
								JOINT left_lowarm_twist
								{
									OFFSET	-110.7	-3.89999	13.6
									CHANNELS 3  Xrotation Yrotation Zrotation
									JOINT left_hand
									{
										OFFSET	-110.7	-3.89999	13.6
										CHANNELS 3  Xrotation Yrotation Zrotation
										JOINT left_ee
										{
											OFFSET	-80.8	-5.10001	12.1
											CHANNELS 3  Xrotation Yrotation Zrotation
											End Site
											{
												OFFSET	1	0	0
											}
										}
									}
								}
							}
						}
					}
					JOINT right_clavicle
					{
						OFFSET	43.2	22.4	-70.8
						CHANNELS 3  Xrotation Yrotation Zrotation
						JOINT right_shoulder
						{
							OFFSET	93.9	-5.79999	48.7
							CHANNELS 3  Xrotation Yrotation Zrotation
							JOINT right_elbow
							{
								OFFSET	291.4	-30.8	15.2
								CHANNELS 3  Xrotation Yrotation Zrotation
								JOINT right_lowarm_twist
								{
									OFFSET	110.7	-3.89999	13.6
									CHANNELS 3  Xrotation Yrotation Zrotation
									JOINT right_hand
									{
										OFFSET	110.7	-3.89999	13.6
										CHANNELS 3  Xrotation Yrotation Zrotation
										JOINT right_ee
										{
											OFFSET	80.8	-5.10001	12.1
											CHANNELS 3  Xrotation Yrotation Zrotation
											End Site
											{
												OFFSET	1	0	0
											}
										}
									}
								}
							}
						}
					}
				}
			}
		}
	}
	JOINT left_hip
	{
		OFFSET	-82.8	-127.5	0.300001
		CHANNELS 3  Xrotation Yrotation Zrotation
		JOINT left_knee
		{
			OFFSET	-28.2	-396.7	2.2
			CHANNELS 3  Xrotation Yrotation Zrotation
			JOINT left_ankle
			{
				OFFSET	-11.7	-411.3	35.4
				CHANNELS 3  Xrotation Yrotation Zrotation
				JOINT left_toes
				{
					OFFSET	0	-60	-88.6
					CHANNELS 3  Xrotation Yrotation Zrotation
					JOINT left_foot_ee
					{
						OFFSET	-22.5	-16.5	-42.2
						CHANNELS 3  Xrotation Yrotation Zrotation
						End Site
						{
							OFFSET	1	0	0
						}
					}
				}
			}
		}
	}
	JOINT right_hip
	{
		OFFSET	82.8	-127.5	0.300001
		CHANNELS 3  Xrotation Yrotation Zrotation
		JOINT right_knee
		{
			OFFSET	28.2	-396.7	2.2
			CHANNELS 3  Xrotation Yrotation Zrotation
			JOINT right_ankle
			{
				OFFSET	11.7	-411.3	35.4
				CHANNELS 3  Xrotation Yrotation Zrotation
				JOINT right_toes
				{
					OFFSET	0	-60	-88.6
					CHANNELS 3  Xrotation Yrotation Zrotation
					JOINT right_foot_ee
					{
						OFFSET	22.5	-16.5	-42.2
						CHANNELS 3  Xrotation Yrotation Zrotation
						End Site
						{
							OFFSET	1	0	0
						}
					}
				}
			}
		}
	}
}
MOTION
Frames: 13
Frame Time: 0.02
2742.61 692.042 -589.795 -168.311 -73.5893 -160.984 1.75887 -0.681212 -5.24912 1.77412 -0.346293 -5.28171 1.80646 0.607286 -5.25816 1.76798 -0.229564 -5.28805 -16.6317 12.4087 10.6679 -16.6272 17.818 14.4211 -0.0 0.0 -0.0 10.6011 2.17433 20.76 -7.85154 -17.4345 63.7875 4.98813 -67.9422 3.36204 -83.6053 -8.27715 5.21671 0.100949 9.99516 4.78923 -0.0 0.0 -0.0 -0.884453 -5.21667 0.998064 -17.6378 16.0061 -66.0233 0.518378 14.402 -0.0654959 68.3534 2.57132 7.82204 -3.99178 -27.5639 11.1042 0.0 0.0 0.0 -1.87124 32.6371 -8.01453 -12.3019 0.307928 1.85919 37.9794 -24.8296 -5.39774 -19.1523 0.0 0.0 -0.0 0.0 -0.0 34.4302 2.30821 -9.29344 -2.62544 -0.0991607 -0.390682 -6.88825 21.5648 -1.18272 -21.6068 0.0 0.0 0.0 0.0 0.0 
2754.85 692.45 -587.585 -166.55 -74.5251 -159.891 1.81253 -0.681681 -5.00366 1.82638 -0.362318 -5.03678 1.85845 0.542769 -5.02058 1.82339 -0.255909 -5.04329 -15.5608 13.0484 11.3444 -15.496 18.4059 15.0764 -0.0 0.0 -0.0 10.8658 2.96063 21.241 -9.037 -16.9127 63.9469 4.98485 -67.9291 3.35899 -82.9292 -8.19213 5.23073 -0.0242903 11.1753 4.46246 -0.0 0.0 -0.0 -0.185494 -4.52557 -0.196526 -17.2432 15.9739 -65.9524 0.466643 13.0161 -0.0532341 68.4893 2.58514 7.83269 -4.30871 -28.7802 12.0762 0.0 0.0 0.0 -1.7906 35.3757 -7.81654 -12.7714 0.31172 1.93112 38.0255 -22.6471 -5.29073 -18.9979 0.0 0.0 -0.0 0.0 -0.0 33.9177 1.50579 -8.4697 -1.48071 -0.0581301 -0.219794 -10.4702 21.5226 -1.80772 -21.7258 0.0 0.0 0.0 0.0 0.0 
2771.86 695.614 -582.394 -165.165 -74.6241 -159.049 1.8898 -0.681783 -4.91921 1.90318 -0.367772 -4.95251 1.93492 0.515677 -4.93934 1.90099 -0.269881 -4.95879 -14.3549 13.2243 12.074 -14.1863 17.9946 15.5947 -0.0 0.0 -0.0 10.6129 2.76849 20.7397 -11.2021 -16.4904 64.2627 4.77932 -67.0785 3.1691 -83.2 -8.2262 5.22523 -0.265028 10.8688 2.80178 -0.0 0.0 -0.0 0.238794 -4.0508 -0.924038 -16.7485 16.1107 -65.2084 0.464841 12.9676 -0.0528291 69.3054 2.66861 7.8959 -4.2051 -28.9157 11.4147 0.0 0.0 0.0 -2.06153 34.2047 -7.95019 -13.329 0.315458 2.01659 37.9768 -24.3026 -5.36943 -17.6536 0.0 0.0 -0.0 0.0 -0.0 33.3121 2.07759 -8.32735 -2.06782 -0.0796013 -0.30734 -11.7003 19.1587 -1.97756 -20.0712 0.0 0.0 0.0 0.0 0.0 
2790.3 695.972 -575.537 -163.622 -74.8535 -157.938 2.0548 -0.611331 -4.84327 2.06779 -0.302277 -4.87227 2.0928 0.552706 -4.8503 2.06005 -0.219303 -4.87669 -12.4351 14.2452 11.711 -12.2683 19.6489 15.2494 -0.0 0.0 -0.0 10.4565 1.88298 20.484 -12.1137 -16.2185 64.5632 4.19177 -64.2659 2.63356 -82.2209 -8.10285 5.24433 0.012393 10.3741 4.37347 -0.0 0.0 -0.0 0.733888 -2.63282 -1.69207 -16.0914 16.2985 -65.1262 0.424523 11.8762 -0.0441559 69.2555 2.66349 7.89207 -4.19001 -28.899 11.3425 0.0 0.0 0.0 -2.37071 35.4745 -8.02025 -12.8534 0.312322 1.94368 38.0928 -24.1601 -5.37328 -17.5841 0.0 0.0 -0.0 0.0 -0.0 32.9902 1.70337 -7.68694 -1.87564 -0.072672 -0.27866 -12.2053 22.6621 -2.13733 -19.9905 0.0 0.0 0.0 0.0 0.0 
2809.2 699.91 -569.537 -162.792 -74.715 -157.877 2.03761 -0.495545 -4.62303 2.04947 -0.200689 -4.64514 2.06507 0.615526 -4.60862 2.03546 -0.11923 -4.64793 -12.1694 14.8214 12.1862 -11.9757 20.3696 15.8142 -0.0 0.0 -0.0 9.68658 4.28546 18.7668 -13.4857 -17.6269 66.4905 3.96891 -63.023 2.43386 -81.7981 -8.04948 5.25192 -0.093578 10.2837 3.65767 -0.0 0.0 -0.0 1.32178 -1.81644 -2.71919 -15.6009 16.9095 -65.0132 0.364045 10.2229 -0.0325635 68.8285 2.61973 7.85911 -4.36555 -28.8422 12.3494 0.0 0.0 0.0 -2.94667 35.8562 -8.04173 -13.7962 0.31795 2.08823 35.8468 -26.2762 -5.26091 -17.1895 0.0 0.0 -0.0 0.0 -0.0 31.4045 1.01615 -6.62529 -1.72821 -0.0672908 -0.256674 -10.528 24.3223 -1.87343 -18.1421 0.0 0.0 0.0 0.0 0.0 
2826.13 703.0 -563.773 -163.985 -75.2522 -159.108 2.22964 -0.400247 -4.51775 2.24098 -0.112261 -4.53402 2.24856 0.668948 -4.4859 2.22049 -0.0471549 -4.53516 -13.1382 14.8586 13.3532 -12.8856 19.9891 17.0787 -0.0 0.0 -0.0 9.70279 7.08445 18.5806 -14.7009 -16.6211 66.7608 3.62936 -60.9011 2.1341 -82.1018 -8.08782 5.24651 -0.362188 10.5665 2.05627 -0.0 0.0 -0.0 1.50295 -1.45189 -3.02893 -15.8015 16.2686 -65.3599 0.354985 9.97364 -0.0309749 68.9458 2.63171 7.86819 -4.53948 -28.8953 13.2786 0.0 0.0 0.0 -3.9264 36.743 -8.18918 -13.017 0.313469 1.96877 34.9321 -26.5911 -5.18127 -17.1285 0.0 0.0 -0.0 0.0 -0.0 31.3883 0.727599 -6.00173 -5.39423 -0.184211 -0.807055 -7.96692 26.405 -1.44696 -17.9506 0.0 0.0 0.0 0.0 0.0 
2838.53 709.434 -556.774 -161.332 -75.8643 -156.857 2.24833 -0.494015 -4.42208 2.25918 -0.211909 -4.4445 2.27441 0.553052 -4.4151 2.24725 -0.150458 -4.447 -12.2374 15.7692 11.8513 -12.1201 22.4214 15.7933 -0.0 0.0 -0.0 9.60557 6.96947 18.4033 -17.4087 -18.7522 65.1458 3.39053 -59.2168 1.92712 -80.4345 -7.87694 5.27368 -0.143459 8.84046 2.7449 -0.0 0.0 -0.0 1.93891 -0.413883 -3.77017 -14.6349 16.848 -65.4672 0.364626 10.2389 -0.0326668 69.5092 2.6896 7.9115 -4.32201 -28.7743 12.1537 0.0 0.0 0.0 -2.89657 37.4198 -8.57128 -12.9982 0.313341 1.96588 31.0921 -24.8201 -4.65787 -16.2369 0.0 0.0 -0.0 0.0 -0.0 30.6192 0.573965 -5.72425 -5.54753 -0.18833 -0.830222 -4.83664 26.6541 -0.875589 -17.3276 0.0 0.0 0.0 0.0 0.0 
2856.32 709.902 -549.208 -161.016 -75.283 -156.842 2.31191 -0.30583 -4.33138 2.32235 -0.0298579 -4.34204 2.32311 0.711648 -4.28354 2.29752 0.0268758 -4.34206 -10.2959 16.7881 12.0532 -10.0915 23.642 15.8842 -0.0 0.0 -0.0 8.9508 8.6063 17.029 -18.5054 -18.1139 66.3385 3.16592 -57.4646 1.73592 -80.4453 -7.87831 5.27352 -0.127511 10.2676 3.43367 -0.0 0.0 -0.0 2.19859 0.215991 -4.21798 -12.8585 16.9296 -66.0858 0.363483 10.2074 -0.0324638 69.648 2.70392 7.92208 -4.55239 -28.8129 13.4071 0.0 0.0 0.0 -2.9886 37.65 -8.43603 -13.7852 0.317897 2.08655 30.4467 -22.2699 -4.46849 -17.0729 0.0 0.0 -0.0 0.0 -0.0 29.7718 0.193736 -5.70621 -5.63431 -0.190634 -0.84334 -3.5239 27.1381 -0.639836 -15.9541 0.0 0.0 0.0 0.0 0.0 
2878.45 712.98 -545.558 -164.027 -75.4344 -159.887 2.19406 -0.373644 -4.34648 2.20457 -0.0965781 -4.36141 2.2108 0.657511 -4.31274 2.18485 -0.0311842 -4.36237 -10.7867 16.677 11.1589 -10.6802 24.1824 15.1135 -0.0 0.0 -0.0 8.68862 12.0013 16.2622 -20.4582 -17.3829 66.7166 2.88476 -55.0059 1.50213 -78.6811 -7.65428 5.29556 -0.16203 9.82173 3.02943 -0.0 0.0 -0.0 1.74381 0.846945 -3.28382 -11.6541 18.8688 -66.8133 0.386086 10.8276 -0.0365899 69.7833 2.71792 7.93237 -4.43053 -28.8768 12.6862 0.0 0.0 0.0 -2.32918 37.5331 -9.93622 -18.66 0.309178 2.8342 27.1306 -18.8939 -3.95168 -17.3575 0.0 0.0 -0.0 0.0 -0.0 28.0982 -0.595914 -5.51388 -6.63943 -0.215876 -0.995521 -1.84305 28.3865 -0.338588 -15.7089 0.0 0.0 0.0 0.0 0.0 
2897.81 713.472 -539.845 -164.914 -75.4495 -161.217 2.06651 -0.412389 -4.21762 2.07639 -0.143421 -4.23527 2.08633 0.59854 -4.19529 2.06178 -0.0709222 -4.2371 -10.4732 16.7523 11.0658 -10.357 24.2949 14.9821 -0.0 0.0 -0.0 8.17677 13.2815 15.2491 -21.8566 -15.7943 66.9387 2.62722 -52.4533 1.29444 -78.2269 -7.59649 5.3001 -0.212395 10.2057 2.86459 -0.0 0.0 -0.0 2.01569 1.6737 -3.74103 -11.342 20.0278 -66.2638 0.458449 12.7952 -0.0514041 69.9368 2.73381 7.94399 -4.4352 -28.9112 12.6888 0.0 0.0 0.0 -1.30703 35.9044 -10.8646 -22.6716 0.254348 3.44719 26.092 -18.7855 -3.82182 -16.9879 0.0 0.0 -0.0 0.0 -0.0 25.9965 -0.451561 -5.10173 -6.93154 -0.22271 -1.03983 2.52908 27.1933 0.451696 -13.6761 0.0 0.0 0.0 0.0 0.0 
2914.7 712.824 -532.535 -164.596 -75.0836 -160.701 2.14997 -0.384889 -4.28788 2.16019 -0.111518 -4.30364 2.16761 0.635967 -4.25794 2.14232 -0.0438292 -4.30486 -10.3893 16.9094 10.592 -10.3096 24.8885 14.5616 -0.0 0.0 -0.0 7.96681 14.4954 14.7851 -22.9999 -15.7386 66.5369 2.32393 -49.0136 1.05952 -76.6283 -7.39276 5.31242 -0.0051346 9.90408 4.07067 -0.0 0.0 -0.0 2.14929 3.2841 -3.86611 -8.70193 20.5352 -66.5258 0.471519 13.1474 -0.0543377 69.9492 2.7351 7.94493 -4.4988 -28.9165 13.038 0.0 0.0 0.0 -0.0944039 34.7623 -12.8832 -25.0588 0.201399 3.80967 23.8763 -18.6794 -3.54133 -16.4019 0.0 0.0 -0.0 0.0 -0.0 24.7355 -0.237269 -5.30391 -7.73632 -0.240369 -1.16206 6.03807 28.6052 1.08448 -13.8844 0.0 0.0 0.0 0.0 0.0 
2929.01 708.244 -524.062 -168.999 -73.3377 -165.428 2.07882 -0.390612 -4.03082 2.08785 -0.133544 -4.04747 2.09664 0.574671 -4.00876 2.07423 -0.0651109 -4.04915 -11.9998 16.2682 12.7966 -11.8088 22.6942 16.7686 -0.0 0.0 -0.0 6.79869 15.693 12.7431 -24.4417 -15.9654 66.6219 2.11248 -46.2949 0.9032 -74.8855 -7.17024 5.31932 0.0963502 8.42468 4.12539 -0.0 0.0 -0.0 1.6269 4.64247 -2.70373 -3.88856 22.4748 -69.1387 0.636118 17.4905 -0.0978548 69.7006 2.70937 7.92609 -4.45215 -28.7018 12.9248 0.0 0.0 0.0 0.638938 31.9943 -13.9312 -32.8301 -0.074697 4.96945 20.2879 -13.7246 -2.95883 -15.1361 0.0 0.0 -0.0 0.0 -0.0 23.0016 -0.518761 -6.0111 -8.30006 -0.251715 -1.24783 10.4674 28.2317 1.83741 -13.184 0.0 0.0 0.0 0.0 0.0 
2934.28 709.949 -515.622 -169.574 -73.6031 -166.152 2.01938 -0.471641 -3.8979 2.0278 -0.222846 -3.91997 2.04267 0.467906 -3.89835 2.0215 -0.153147 -3.9233 -12.568 16.2273 12.356 -12.4492 23.0754 16.4644 -0.0 0.0 -0.0 6.43547 15.9766 12.1321 -24.0832 -16.4595 66.1807 1.77143 -41.2637 0.667008 -71.1002 -6.68651 5.31078 0.448329 7.37376 5.99336 -0.0 0.0 -0.0 1.2665 5.82529 -1.86413 -1.80998 24.0069 -70.7888 0.718038 19.5802 -0.123901 69.9056 2.73058 7.94163 -4.31547 -28.6955 12.17 0.0 0.0 0.0 1.90978 29.421 -15.0265 -34.9088 -0.175033 5.27257 14.6953 -9.89785 -2.15145 -15.2183 0.0 0.0 -0.0 0.0 -0.0 21.6563 -0.563896 -6.49142 -7.44777 -0.234235 -1.11821 13.0576 27.0852 2.23325 -11.0593 0.0 0.0 0.0 0.0 0.0 
